<svg width="55" height="49" viewBox="0 0 55 49" fill="none" xmlns="http://www.w3.org/2000/svg">
  <path d="M55 24.8094V28.0579C54.9982 28.4562 54.9125 28.8497 54.7484 29.2122C54.5844 29.5748 54.3458 29.8983 54.0483 30.1614C53.7508 30.4245 53.4013 30.6212 53.0227 30.7386C52.644 30.856 52.245 30.8913 51.8518 30.8424L34.7781 28.6984V39.041L37.5478 40.6281C38.0989 40.9466 38.5685 41.3898 38.9195 41.9225C39.2705 42.4552 39.4931 43.0629 39.5697 43.6972L39.8098 45.8474C39.8682 46.3072 39.8116 46.7744 39.645 47.2066C39.4784 47.6388 39.2071 48.0223 38.8557 48.3225C38.5053 48.6238 38.0863 48.8336 37.636 48.9335C37.1857 49.0333 36.7178 49.02 36.2738 48.8948L27.7523 46.5002C27.5783 46.4507 27.394 46.4507 27.22 46.5002L18.7139 48.8979C18.2708 49.0213 17.8043 49.033 17.3557 48.932C16.907 48.831 16.4901 48.6204 16.1417 48.3188C15.7933 48.0171 15.5242 47.6339 15.3583 47.2028C15.1923 46.7718 15.1346 46.3062 15.1902 45.8474L15.4457 43.6972C15.5224 43.0633 15.7448 42.456 16.0951 41.9234C16.4455 41.3907 16.9143 40.9473 17.4645 40.6281L20.2342 39.041L20.2342 28.7076L3.1513 30.8547C2.75786 30.9042 2.35846 30.8692 1.97948 30.752C1.60049 30.6349 1.25054 30.4382 0.952718 30.1751C0.654898 29.9119 0.415988 29.5882 0.251761 29.2254C0.0875338 28.8626 0.00172507 28.4689 0 28.0703L0 24.8094C0.00310303 23.9786 0.256866 23.1683 0.727759 22.4855C1.19865 21.8028 1.86451 21.2797 2.63737 20.9855L20.2219 14.3523V11.1162C20.2221 9.28832 20.4118 7.46549 20.7881 5.67722C20.9317 4.79138 21.2509 3.94358 21.7267 3.18413C22.2025 2.42467 22.8252 1.76904 23.5578 1.25614C24.3085 0.721912 25.1592 0.346382 26.0585 0.152283C26.9577 -0.0418205 27.8868 -0.050457 28.7894 0.126896C30.2014 0.4356 31.4848 1.17357 32.4653 2.24066C33.4458 3.30775 34.076 4.65228 34.2704 6.09179L34.3442 6.5868C34.6242 8.34766 34.7652 10.128 34.7658 11.9113V14.3461L52.3503 20.9793C53.1265 21.2719 53.7956 21.7951 54.2689 22.4792C54.7422 23.1633 54.9972 23.9761 55 24.8094ZM51.9226 27.7516V24.8094C51.9212 24.6075 51.859 24.4107 51.7442 24.245C51.6294 24.0794 51.4673 23.9525 51.2794 23.8813L33.1071 17.0315C32.6946 16.8734 32.3395 16.5934 32.0884 16.2283C31.8374 15.8633 31.7022 15.4303 31.7007 14.9865V11.9206C31.6999 10.2969 31.5713 8.6758 31.316 7.07253L31.2391 6.57752C31.1381 5.77053 30.7961 5.01328 30.2582 4.40571C29.7203 3.79814 29.0119 3.36879 28.2263 3.17431C27.7289 3.07774 27.2173 3.08274 26.7219 3.18905C26.2265 3.29535 25.7575 3.50077 25.3427 3.79308C24.9356 4.07728 24.5895 4.44097 24.3252 4.86247C24.0608 5.28397 23.8836 5.75466 23.804 6.24648C23.465 7.8505 23.2927 9.48561 23.2901 11.1254V14.9927C23.2884 15.4361 23.1535 15.8685 22.9031 16.2335C22.6527 16.5984 22.2984 16.8787 21.8867 17.0377L3.72062 23.8813C3.53269 23.9525 3.37064 24.0794 3.25583 24.245C3.14101 24.4107 3.07882 24.6075 3.07744 24.8094V27.7516L20.8589 25.5179C21.1648 25.4767 21.476 25.502 21.7714 25.5922C22.0667 25.6824 22.3394 25.8354 22.5708 26.0408C22.8022 26.2461 22.987 26.4991 23.1127 26.7825C23.2384 27.066 23.302 27.3733 23.2993 27.6836L23.2993 39.5762C23.3008 39.9632 23.1991 40.3435 23.0048 40.6776C22.8105 41.0117 22.5307 41.2873 22.1945 41.4758L18.9786 43.3321C18.844 43.4088 18.7293 43.5163 18.6438 43.6458C18.5582 43.7754 18.5042 43.9233 18.4862 44.0777L18.2677 45.8072L26.3921 43.524C27.1082 43.3259 27.8641 43.3259 28.5802 43.524L36.7323 45.8072L36.5261 44.0685C36.5081 43.914 36.4541 43.7661 36.3685 43.6365C36.283 43.507 36.1683 43.3995 36.0337 43.3229L32.8055 41.4666C32.4725 41.277 32.1958 41.0016 32.0038 40.6688C31.8118 40.336 31.7114 39.9579 31.713 39.5731L31.713 27.6743C31.7102 27.3637 31.7739 27.0561 31.8998 26.7724C32.0257 26.4887 32.2108 26.2356 32.4425 26.0302C32.6743 25.8247 32.9473 25.6719 33.2431 25.5819C33.5388 25.4919 33.8503 25.4669 34.1565 25.5086L51.9226 27.7516Z" fill="#101B53"/>
</svg>
