<svg width="62" height="49" viewBox="0 0 62 49" fill="none" xmlns="http://www.w3.org/2000/svg">
  <path d="M45.9655 0H16.0345C14.0499 0 12.1467 0.785596 10.7434 2.18396C9.34009 3.58233 8.55172 5.47893 8.55172 7.45652V45.8043C8.55172 46.6519 8.88959 47.4647 9.491 48.064C10.0924 48.6633 10.9081 49 11.7586 49H18.1724C19.0229 49 19.8386 48.6633 20.44 48.064C21.0414 47.4647 21.3793 46.6519 21.3793 45.8043V40.4783H40.6207V45.8043C40.6207 46.6519 40.9586 47.4647 41.56 48.064C42.1614 48.6633 42.9771 49 43.8276 49H50.2414C51.0919 49 51.9076 48.6633 52.509 48.064C53.1104 47.4647 53.4483 46.6519 53.4483 45.8043V7.45652C53.4483 5.47893 52.6599 3.58233 51.2566 2.18396C49.8533 0.785596 47.9501 0 45.9655 0ZM10.6897 38.3478V21.3043H51.3103V38.3478H10.6897ZM51.3103 19.1739H10.6897V10.6522H51.3103V19.1739ZM19.2414 45.8043C19.2414 46.0869 19.1288 46.3578 18.9283 46.5576C18.7278 46.7573 18.4559 46.8696 18.1724 46.8696H11.7586C11.4751 46.8696 11.2032 46.7573 11.0027 46.5576C10.8023 46.3578 10.6897 46.0869 10.6897 45.8043V40.4783H19.2414V45.8043ZM50.2414 46.8696H43.8276C43.5441 46.8696 43.2722 46.7573 43.0717 46.5576C42.8712 46.3578 42.7586 46.0869 42.7586 45.8043V40.4783H51.3103V45.8043C51.3103 46.0869 51.1977 46.3578 50.9973 46.5576C50.7968 46.7573 50.5249 46.8696 50.2414 46.8696ZM51.3103 8.52174H10.6897V7.45652C10.6897 6.04396 11.2528 4.68924 12.2551 3.69041C13.2575 2.69157 14.6169 2.13043 16.0345 2.13043H45.9655C47.3831 2.13043 48.7425 2.69157 49.7449 3.69041C50.7472 4.68924 51.3103 6.04396 51.3103 7.45652V8.52174ZM23.5172 29.8261C23.5172 30.2474 23.3919 30.6593 23.1569 31.0097C22.922 31.36 22.5881 31.6331 22.1975 31.7944C21.8068 31.9556 21.3769 31.9978 20.9622 31.9156C20.5475 31.8334 20.1666 31.6305 19.8676 31.3325C19.5686 31.0346 19.365 30.655 19.2825 30.2417C19.2 29.8285 19.2423 29.4001 19.4041 29.0108C19.5659 28.6215 19.84 28.2888 20.1915 28.0547C20.5431 27.8206 20.9565 27.6957 21.3793 27.6957C21.9463 27.6957 22.4901 27.9201 22.8911 28.3196C23.292 28.7192 23.5172 29.2611 23.5172 29.8261ZM42.7586 29.8261C42.7586 30.2474 42.6332 30.6593 42.3983 31.0097C42.1634 31.36 41.8295 31.6331 41.4388 31.7944C41.0482 31.9556 40.6183 31.9978 40.2036 31.9156C39.7889 31.8334 39.4079 31.6305 39.1089 31.3325C38.8099 31.0346 38.6063 30.655 38.5238 30.2417C38.4413 29.8285 38.4837 29.4001 38.6455 29.0108C38.8073 28.6215 39.0813 28.2888 39.4329 28.0547C39.7845 27.8206 40.1978 27.6957 40.6207 27.6957C41.1877 27.6957 41.7315 27.9201 42.1324 28.3196C42.5334 28.7192 42.7586 29.2611 42.7586 29.8261ZM62 11.7174V18.1087C62 18.3912 61.8874 18.6622 61.6869 18.8619C61.4864 19.0617 61.2145 19.1739 60.931 19.1739C60.6475 19.1739 60.3756 19.0617 60.1752 18.8619C59.9747 18.6622 59.8621 18.3912 59.8621 18.1087V11.7174C59.8621 11.4349 59.9747 11.1639 60.1752 10.9642C60.3756 10.7644 60.6475 10.6522 60.931 10.6522C61.2145 10.6522 61.4864 10.7644 61.6869 10.9642C61.8874 11.1639 62 11.4349 62 11.7174ZM2.13793 11.7174V18.1087C2.13793 18.3912 2.02531 18.6622 1.82484 18.8619C1.62437 19.0617 1.35247 19.1739 1.06897 19.1739C0.785458 19.1739 0.513563 19.0617 0.313093 18.8619C0.112623 18.6622 0 18.3912 0 18.1087V11.7174C0 11.4349 0.112623 11.1639 0.313093 10.9642C0.513563 10.7644 0.785458 10.6522 1.06897 10.6522C1.35247 10.6522 1.62437 10.7644 1.82484 10.9642C2.02531 11.1639 2.13793 11.4349 2.13793 11.7174Z" fill="#101B53"/>
</svg>
