<svg width="61" height="45" viewBox="0 0 61 45" fill="none" xmlns="http://www.w3.org/2000/svg">
  <path d="M59.4492 18H56.3216L49.0042 2.0775C48.7198 1.45915 48.2562 0.933803 47.6694 0.565081C47.0827 0.196359 46.398 7.52106e-05 45.6983 0H15.3017C14.602 7.52106e-05 13.9173 0.196359 13.3306 0.565081C12.7438 0.933803 12.2802 1.45915 11.9958 2.0775L4.67839 18H1.55085C1.13954 18 0.745073 18.158 0.454233 18.4393C0.163392 18.7206 0 19.1022 0 19.5C0 19.8978 0.163392 20.2794 0.454233 20.5607C0.745073 20.842 1.13954 21 1.55085 21H4.13559V41.5C4.13559 42.4283 4.51684 43.3185 5.19547 43.9749C5.8741 44.6312 6.79451 45 7.75424 45H13.9576C14.9174 45 15.8378 44.6312 16.5164 43.9749C17.195 43.3185 17.5763 42.4283 17.5763 41.5V37H43.4237V41.5C43.4237 42.4283 43.805 43.3185 44.4836 43.9749C45.1622 44.6312 46.0826 45 47.0424 45H53.2458C54.2055 45 55.1259 44.6312 55.8045 43.9749C56.4832 43.3185 56.8644 42.4283 56.8644 41.5V21H59.4492C59.8605 21 60.2549 20.842 60.5458 20.5607C60.8366 20.2794 61 19.8978 61 19.5C61 19.1022 60.8366 18.7206 60.5458 18.4393C60.2549 18.158 59.8605 18 59.4492 18ZM14.8287 3.2975C14.8693 3.20892 14.9356 3.13365 15.0195 3.08083C15.1035 3.02802 15.2015 2.99993 15.3017 3H45.6983C45.7985 2.99993 45.8965 3.02802 45.9805 3.08083C46.0644 3.13365 46.1307 3.20892 46.1713 3.2975L52.9278 18H8.07216L14.8287 3.2975ZM14.4746 41.5C14.4746 41.6326 14.4201 41.7598 14.3232 41.8536C14.2262 41.9473 14.0947 42 13.9576 42H7.75424C7.61713 42 7.48565 41.9473 7.3887 41.8536C7.29175 41.7598 7.23729 41.6326 7.23729 41.5V37H14.4746V41.5ZM53.2458 42H47.0424C46.9053 42 46.7738 41.9473 46.6768 41.8536C46.5799 41.7598 46.5254 41.6326 46.5254 41.5V37H53.7627V41.5C53.7627 41.6326 53.7083 41.7598 53.6113 41.8536C53.5144 41.9473 53.3829 42 53.2458 42ZM53.7627 34H7.23729V21H53.7627V34ZM12.4068 27.5C12.4068 27.1022 12.5702 26.7206 12.861 26.4393C13.1519 26.158 13.5463 26 13.9576 26H18.0932C18.5045 26 18.899 26.158 19.1898 26.4393C19.4807 26.7206 19.6441 27.1022 19.6441 27.5C19.6441 27.8978 19.4807 28.2794 19.1898 28.5607C18.899 28.842 18.5045 29 18.0932 29H13.9576C13.5463 29 13.1519 28.842 12.861 28.5607C12.5702 28.2794 12.4068 27.8978 12.4068 27.5ZM41.3559 27.5C41.3559 27.1022 41.5193 26.7206 41.8102 26.4393C42.101 26.158 42.4955 26 42.9068 26H47.0424C47.4537 26 47.8482 26.158 48.139 26.4393C48.4298 26.7206 48.5932 27.1022 48.5932 27.5C48.5932 27.8978 48.4298 28.2794 48.139 28.5607C47.8482 28.842 47.4537 29 47.0424 29H42.9068C42.4955 29 42.101 28.842 41.8102 28.5607C41.5193 28.2794 41.3559 27.8978 41.3559 27.5Z" fill="#101B53"/>
</svg>
