<svg width="58" height="52" viewBox="0 0 58 52" fill="none" xmlns="http://www.w3.org/2000/svg">
  <path d="M50.1869 40.7647C52.0187 41.6575 53.5327 42.9131 54.729 44.5313C55.9252 46.1496 56.6822 47.9725 57 50C57.3178 52.0275 54.3318 51.5 53.9159 50C53.5 48.5 53.3271 47.9539 52.7664 47.0425C52.2056 46.131 51.5234 45.3498 50.7196 44.6988C49.9159 44.0477 49.0093 43.5269 48 43.1363C46.9907 42.7457 45.9439 42.5597 44.8598 42.5783C43.757 42.5783 42.7103 42.7643 41.7196 43.1363C40.729 43.5083 39.8224 44.0198 39 44.6709C38.1776 45.3219 37.4953 46.1124 36.9533 47.0425C36.4112 47.9725 36.028 48.9584 35.8037 50C35.5794 51.0416 32.4206 52.0089 32.7196 50C33.0187 47.9911 33.7664 46.1775 34.9626 44.5592C36.1589 42.941 37.6822 41.6761 39.5327 40.7647C38.4673 39.9276 37.6449 38.9139 37.0654 37.7234C36.486 36.533 36.1869 35.2681 36.1682 33.9289C36.1682 33.0918 36.2804 32.2827 36.5047 31.5014C36.729 30.7202 37.0654 29.9855 37.514 29.2972C37.9626 28.609 38.4953 27.9952 39.1121 27.4557C39.729 26.9163 40.4206 26.4606 41.1869 26.0886C40.6822 25.3632 40.1028 24.7214 39.4486 24.1634C38.7944 23.6054 38.0841 23.1124 37.3178 22.6846C36.5514 22.2568 35.7477 21.9499 34.9065 21.7639C34.0654 21.5779 33.1963 21.4663 32.2991 21.4291C30.8037 21.4291 29.3738 21.7174 28.0093 22.294C26.6449 22.8706 25.4579 23.717 24.4486 24.833C24.8972 26.0421 25.1215 27.2883 25.1215 28.5718C25.1215 30.2831 24.7383 31.8921 23.972 33.3987C23.2056 34.9054 22.1308 36.1703 20.7477 37.1933C21.9626 37.8071 23.0561 38.5605 24.028 39.4533C25 40.3461 25.8411 41.3506 26.5514 42.4666C27.2617 43.5827 27.7944 44.7732 28.1495 46.038C28.5047 47.3029 28.6916 48.6235 28.7103 50C28.729 51.3765 25.1215 51.4695 25.1215 50C25.1215 48.5305 24.8411 47.1448 24.2804 45.8427C23.7196 44.5406 22.9533 43.406 21.9813 42.4387C21.0093 41.4715 19.8598 40.6996 18.5327 40.1229C17.2056 39.5463 15.8131 39.2673 14.3551 39.2859C12.8598 39.2859 11.4673 39.5649 10.1776 40.1229C8.88785 40.681 7.74766 41.4436 6.75701 42.4108C5.76636 43.3781 4.99065 44.522 4.42991 45.8427C3.86916 47.1634 3.58878 48.5491 3.58878 50C3.58878 51.4509 0 51.3579 0 50C0 48.6421 0.186916 47.3308 0.560748 46.0659C0.934579 44.8011 1.46729 43.6106 2.15888 42.4946C2.85047 41.3785 3.68224 40.3741 4.65421 39.4812C5.62617 38.5884 6.72897 37.8257 7.96262 37.1933C6.57944 36.1703 5.50467 34.9054 4.73832 33.3987C3.97196 31.8921 3.58878 30.2831 3.58878 28.5718C3.58878 27.1023 3.86916 25.7166 4.42991 24.4145C4.99065 23.1124 5.75701 21.9778 6.72897 21.0105C7.70093 20.0433 8.84112 19.2714 10.1495 18.6947C11.4579 18.1181 12.8598 17.8391 14.3551 17.8577C15.9439 17.8577 17.4486 18.1925 18.8692 18.8622C20.2897 19.5318 21.5234 20.4618 22.5701 21.6523C23.0561 21.1873 23.5794 20.7687 24.1402 20.3967C24.7009 20.0247 25.2897 19.6713 25.9065 19.3365C24.5234 18.3134 23.4486 17.0486 22.6822 15.5419C21.9159 14.0352 21.5327 12.4263 21.5327 10.715C21.5327 9.2455 21.8131 7.85974 22.3738 6.55768C22.9346 5.25562 23.7009 4.12096 24.6729 3.15372C25.6449 2.18647 26.785 1.41454 28.0935 0.837911C29.4019 0.261284 30.8037 -0.017729 32.2991 0.000871916C33.7757 0.000871916 35.1682 0.279885 36.4766 0.837911C37.785 1.39594 38.9252 2.15857 39.8972 3.12582C40.8692 4.09306 41.6449 5.23702 42.2243 6.55768C42.8037 7.87834 43.0841 9.2641 43.0654 10.715C43.0654 12.4263 42.6822 14.0352 41.9159 15.5419C41.1495 17.0486 40.0748 18.3134 38.6916 19.3365C40 20.0247 41.1776 20.8617 42.2243 21.8476C43.271 22.8334 44.1589 23.9774 44.8878 25.2794C46.0841 25.2794 47.2056 25.5027 48.2523 25.9491C49.2991 26.3955 50.2243 27.0186 51.028 27.8185C51.8318 28.6183 52.4486 29.5297 52.8785 30.5528C53.3084 31.5758 53.5327 32.7012 53.5514 33.9289C53.5514 35.2681 53.2617 36.533 52.6822 37.7234C52.1028 38.9139 51.271 39.9276 50.1869 40.7647ZM14.3551 35.7145C15.3458 35.7145 16.271 35.5285 17.1308 35.1565C17.9907 34.7845 18.757 34.273 19.4299 33.6219C20.1028 32.9709 20.6168 32.2176 20.972 31.3619C21.3271 30.5063 21.514 29.5762 21.5327 28.5718C21.5327 27.586 21.3458 26.6652 20.972 25.8096C20.5981 24.9539 20.0841 24.1913 19.4299 23.5217C18.7757 22.852 18.0187 22.3405 17.1589 21.9871C16.2991 21.6337 15.3645 21.4477 14.3551 21.4291C13.3645 21.4291 12.4393 21.6151 11.5794 21.9871C10.7196 22.3591 9.95327 22.8706 9.28037 23.5217C8.60748 24.1727 8.09346 24.926 7.73832 25.7817C7.38318 26.6373 7.19626 27.5674 7.17757 28.5718C7.17757 29.5576 7.36449 30.4784 7.73832 31.334C8.11215 32.1897 8.62617 32.9523 9.28037 33.6219C9.93458 34.2916 10.6916 34.8031 11.5514 35.1565C12.4112 35.5099 13.3458 35.6959 14.3551 35.7145ZM25.1215 10.715C25.1215 11.7008 25.3084 12.6216 25.6822 13.4772C26.0561 14.3328 26.5701 15.0955 27.2243 15.7651C27.8785 16.4347 28.6355 16.9463 29.4953 17.2997C30.3551 17.6531 31.2897 17.8391 32.2991 17.8577C33.2897 17.8577 34.215 17.6717 35.0748 17.2997C35.9346 16.9277 36.7009 16.4161 37.3738 15.7651C38.0467 15.1141 38.5607 14.3607 38.9159 13.5051C39.271 12.6495 39.4579 11.7194 39.4766 10.715C39.4766 9.72913 39.2897 8.80838 38.9159 7.95274C38.5421 7.0971 38.028 6.33447 37.3738 5.66484C36.7196 4.9952 35.9626 4.48368 35.1028 4.13026C34.243 3.77685 33.3084 3.59084 32.2991 3.57224C31.3084 3.57224 30.3832 3.75825 29.5234 4.13026C28.6635 4.50228 27.8972 5.0138 27.2243 5.66484C26.5514 6.31587 26.0374 7.0692 25.6822 7.92484C25.3271 8.78048 25.1402 9.71052 25.1215 10.715ZM44.8598 28.2928C44.0748 28.2928 43.3458 28.4416 42.6729 28.7392C42 29.0368 41.4019 29.4367 40.8785 29.939C40.3551 30.4412 39.9439 31.0364 39.6449 31.7246C39.3458 32.4129 39.1963 33.1476 39.1963 33.9289C39.1963 34.7101 39.3458 35.4355 39.6449 36.1052C39.9439 36.7748 40.3458 37.37 40.8505 37.8908C41.3551 38.4117 41.9533 38.8209 42.6449 39.1185C43.3364 39.4161 44.0748 39.5649 44.8598 39.5649C45.6449 39.5649 46.3738 39.4161 47.0467 39.1185C47.7196 38.8209 48.3178 38.421 48.8411 37.9187C49.3645 37.4165 49.7757 36.8213 50.0748 36.1331C50.3738 35.4448 50.5234 34.7101 50.5234 33.9289C50.5234 33.1476 50.3738 32.4222 50.0748 31.7526C49.7757 31.0829 49.3738 30.4877 48.8692 29.9669C48.3645 29.446 47.7664 29.0368 47.0748 28.7392C46.3832 28.4416 45.6449 28.2928 44.8598 28.2928Z" fill="#101B53"/>
</svg>
