<svg width="58" height="52" viewBox="0 0 58 52" fill="none" xmlns="http://www.w3.org/2000/svg">
  <path d="M45.9942 18.0044H40.6615M40.6615 18.0044H35.3289M40.6615 18.0044V12.6718M40.6615 18.0044V23.3371" stroke="#101B53" stroke-width="1.5" stroke-linecap="round"/>
  <path d="M28.663 8.86949L27.2019 10.2347C27.389 10.4349 27.6152 10.5945 27.8665 10.7036C28.1179 10.8128 28.389 10.8691 28.663 10.8691C28.937 10.8691 29.2081 10.8128 29.4595 10.7036C29.7108 10.5945 29.9371 10.4349 30.1242 10.2347L28.663 8.86949ZM3.73819 30.4881C3.87011 30.7205 4.0473 30.9242 4.25928 31.087C4.47125 31.2498 4.71371 31.3685 4.97233 31.436C5.23095 31.5035 5.50048 31.5184 5.76499 31.48C6.02949 31.4416 6.28361 31.3505 6.51231 31.2122C6.74102 31.0738 6.93967 30.8911 7.09653 30.6746C7.25339 30.4582 7.36528 30.2126 7.42558 29.9522C7.48587 29.6918 7.49336 29.4219 7.44758 29.1586C7.40181 28.8953 7.30371 28.6438 7.15909 28.419L3.73819 30.4881ZM14.0969 37.1246C13.9162 36.9265 13.6975 36.7667 13.4539 36.6549C13.2102 36.543 12.9465 36.4812 12.6785 36.4733C12.4105 36.4654 12.1437 36.5114 11.8938 36.6087C11.644 36.706 11.4162 36.8525 11.2242 37.0396C11.0321 37.2267 10.8796 37.4504 10.7758 37.6976C10.6719 37.9448 10.6188 38.2104 10.6197 38.4785C10.6205 38.7466 10.6753 39.0118 10.7807 39.2583C10.8861 39.5049 11.04 39.7277 11.2332 39.9135L14.0969 37.1246ZM3.99949 18.8522C3.99949 11.1065 7.38039 6.32048 11.5612 4.68069C15.734 3.04624 21.5706 4.21409 27.2019 10.2347L30.1242 7.50433C23.757 0.694535 16.2619 -1.45452 10.1027 0.955835C3.9515 3.36619 0 9.98402 0 18.8522H3.99949ZM38.0218 47.2273C42.0027 43.9983 46.77 39.6709 50.5616 34.8369C54.3131 30.0535 57.326 24.4942 57.326 18.8469H53.3265C53.3265 23.145 50.9802 27.8164 47.4126 32.3678C43.8824 36.8713 39.371 40.9854 35.5048 44.121L38.0218 47.2273ZM57.326 18.8469C57.326 9.98135 53.3745 3.36353 47.2207 0.955835C41.0614 -1.45719 33.5691 0.689202 27.2019 7.50167L30.1242 10.2347C35.7554 4.21409 41.592 3.04357 45.7648 4.67803C49.9456 6.31515 53.3265 11.1039 53.3265 18.8469H57.326ZM19.3042 47.2299C22.6904 49.9816 25.0421 52 28.663 52V48.0005C26.7353 48.0005 25.5354 47.1366 21.8212 44.1237L19.3042 47.2299ZM35.5048 44.121C31.7906 47.134 30.5908 48.0005 28.663 48.0005V52C32.2839 52 34.6383 49.9816 38.0245 47.2299L35.5048 44.121ZM7.16175 28.419C5.16468 25.1234 3.99949 21.8838 3.99949 18.8522H0C0 22.8837 1.5358 26.8512 3.73819 30.4881L7.15909 28.419H7.16175ZM21.8212 44.1237C19.1138 41.9413 16.5348 39.6043 14.0969 37.1246L11.2332 39.9135C13.7794 42.5058 16.476 44.9487 19.3042 47.2299L21.8212 44.1237Z" fill="#101B52"/>
</svg>
