<svg width="60" height="59" viewBox="0 0 60 59" fill="none" xmlns="http://www.w3.org/2000/svg">
  <path d="M22.5 25.8125C24.5711 25.8125 26.25 24.1616 26.25 22.125C26.25 20.0884 24.5711 18.4375 22.5 18.4375C20.4289 18.4375 18.75 20.0884 18.75 22.125C18.75 24.1616 20.4289 25.8125 22.5 25.8125Z" fill="#101B53"/>
  <path d="M37.5 25.8125C39.5711 25.8125 41.25 24.1616 41.25 22.125C41.25 20.0884 39.5711 18.4375 37.5 18.4375C35.4289 18.4375 33.75 20.0884 33.75 22.125C33.75 24.1616 35.4289 25.8125 37.5 25.8125Z" fill="#101B53"/>
  <path d="M30 55.3125C15.525 55.3125 3.75 43.7337 3.75 29.5C3.75 15.2663 15.525 3.6875 30 3.6875C44.475 3.6875 56.25 15.2663 56.25 29.5C56.25 43.7337 44.475 55.3125 30 55.3125ZM30 7.375C17.5875 7.375 7.5 17.2944 7.5 29.5C7.5 41.7056 17.5875 51.625 30 51.625C42.4125 51.625 52.5 41.7056 52.5 29.5C52.5 17.2944 42.4125 7.375 30 7.375Z" fill="#101B53"/>
  <path d="M30 42.4062C24.45 42.4062 19.4625 38.94 17.625 33.8144C17.4945 33.3645 17.5425 32.8826 17.7592 32.4661C17.9759 32.0496 18.3453 31.7295 18.7927 31.5704C19.2401 31.4112 19.7323 31.425 20.1698 31.6087C20.6073 31.7925 20.9576 32.1327 21.15 32.5606C21.7951 34.3622 22.9928 35.9225 24.578 37.0263C26.1632 38.13 28.0577 38.7228 30 38.7228C31.9424 38.7228 33.8369 38.13 35.422 37.0263C37.0072 35.9225 38.205 34.3622 38.85 32.5606C39.1875 31.6019 40.275 31.0856 41.25 31.4544C42.225 31.7862 42.75 32.8556 42.375 33.8144C41.471 36.3303 39.795 38.5081 37.5783 40.0472C35.3615 41.5862 32.7136 42.4105 30 42.4062Z" fill="#101B53"/>
</svg>
